#!OML:ASF F:\VICON\USERDATA\INSTALL\rory3\rory3.ASF
:FULLY-SPECIFIED
:DEGREES
1220
root -13.8436 17.929 12.2145 362.554 -3.31059 2.71927
lowerback 12.1746 1.94387 0.517976
upperback 2.72451 2.62741 -0.108251
thorax -3.93514 1.292 -0.806034
lowerneck -13.1161 4.93272 -7.71314
upperneck 45.6491 8.7784 4.56294
head 19.0954 2.81011 5.284
rclavicle 1.76918e-014 -8.74653e-015
rhumerus -37.0993 -8.61767 -80.5004
rradius 42.6882
rwrist -0.230687
rhand -15.1635 7.83837
rfingers 7.12502
rthumb 11.007 -21.853
lclavicle 1.76918e-014 -8.74653e-015
lhumerus -36.5092 14.9563 78.0969
lradius 36.4454
lwrist -5.01918
lhand -16.9928 29.2712
lfingers 7.12502
lthumb 9.24228 59.0486
rfemur -15.4162 -2.48458 21.6142
rtibia 32.1974
rfoot -14.5181 -7.10029
rtoes 12.4812
lfemur -20.2196 -7.99393 -19.0636
ltibia 29.9823
lfoot -12.5353 -6.12589
ltoes -17.9106
1221
root -13.86 17.9329 12.1703 362.628 -2.53227 2.80794
lowerback 12.1671 1.88236 0.359402
upperback 2.75279 2.52597 -0.127704
thorax -3.90902 1.24383 -0.720904
lowerneck -13.1733 5.04574 -7.73676
upperneck 45.7483 8.96183 4.65119
head 19.1454 2.88861 5.37442
rclavicle -9.64106e-015 -2.78299e-015
rhumerus -37.1929 -8.97313 -80.2136
rradius 42.4264
rwrist 0.199131
rhand -14.9208 8.08367
rfingers 7.12502
rthumb 11.2411 -21.5951
lclavicle -9.64106e-015 -2.78299e-015
lhumerus -36.5844 14.6834 78.2523
lradius 36.485
lwrist -4.99738
lhand -18.6727 27.7246
lfingers 7.12502
lthumb 7.62112 57.5673
rfemur -15.485 -2.75394 21.619
rtibia 32.0001
rfoot -14.2725 -7.60699
rtoes 12.3402
lfemur -20.3153 -7.8357 -19.3607
ltibia 31.2252
lfoot -12.7357 -5.4226
ltoes -14.3283
1222
root -13.8752 17.9439 12.1275 362.778 -1.80898 2.82698
lowerback 12.0205 1.87151 0.276936
upperback 2.79517 2.50117 -0.142757
thorax -3.78751 1.23351 -0.680105
lowerneck -13.1451 5.15257 -7.5932
upperneck 45.7852 9.1439 4.56543
head 19.1607 2.97725 5.34165
rclavicle 6.95746e-016 -3.97569e-015
rhumerus -37.2489 -9.32081 -79.9539
rradius 42.0905
rwrist 0.198313
rhand -14.8568 8.3731
rfingers 7.12502
rthumb 11.3029 -21.3023
lclavicle 6.95746e-016 -3.97569e-015
lhumerus -36.5204 14.4031 78.4388
lradius 36.4027
lwrist -5.21827
lhand -18.9047 27.4705
lfingers 7.12502
lthumb 7.39713 57.3211
rfemur -15.6595 -2.99437 21.6808
rtibia 31.8153
rfoot -14.034 -7.98143
rtoes 12.4315
lfemur -20.4407 -7.69327 -19.5645
ltibia 32.4417
lfoot -13.0952 -4.68617
ltoes -14.6489
1223
root -13.8911 17.9517 12.0873 362.76 -1.17578 2.75968
lowerback 12.009 1.8975 0.303373
upperback 2.90475 2.53841 -0.157151
thorax -3.66452 1.25292 -0.712461
lowerneck -13.2203 5.18164 -7.55827
upperneck 45.8161 9.19791 4.59796
head 19.1954 3.01051 5.37026
rclavicle 1.35174e-014 1.98785e-015
rhumerus -37.3493 -9.5821 -79.7491
rradius 41.9209
rwrist 0.0270729
rhand -14.8851 8.43559
rfingers 7.12502
rthumb 11.2756 -21.2413
lclavicle 1.35174e-014 1.98785e-015
lhumerus -36.3638 14.1198 78.6101
lradius 36.2496
lwrist -5.37203
lhand -18.574 27.9191
lfingers 7.12502
lthumb 7.71638 57.7583
rfemur -15.6578 -3.0523 21.8212
rtibia 31.646
rfoot -13.8177 -8.36934
rtoes 12.7945
lfemur -20.3204 -7.59197 -19.6559
ltibia 33.5893
lfoot -13.3403 -4.11961
ltoes -15.553
1224
root -13.9098 17.9533 12.0498 362.692 -0.6029 2.64733
lowerback 12.0988 1.94304 0.306816
upperback 2.92704 2.5996 -0.157593
thorax -3.68948 1.28324 -0.726844
lowerneck -13.204 5.17714 -7.56603
upperneck 45.9244 9.16792 4.72305
head 19.2517 3.0126 5.43841
rclavicle -1.94809e-014 1.98785e-014
rhumerus -37.6492 -9.90208 -79.4711
rradius 41.8121
rwrist 0.168979
rhand -14.935 8.16529
rfingers 7.12502
rthumb 11.2274 -21.5143
lclavicle -1.94809e-014 1.98785e-014
lhumerus -36.5543 13.646 78.711
lradius 36.3921
lwrist -5.41948
lhand -18.6256 27.6625
lfingers 7.12502
lthumb 7.66652 57.5035
rfemur -15.6107 -3.01197 22.021
rtibia 31.501
rfoot -13.6786 -8.75444
rtoes 13.1529
lfemur -20.0991 -7.5593 -19.6358
ltibia 34.6597
lfoot -13.5245 -3.79737
ltoes -16.1487
1225
root -13.9249 17.9555 12.0105 362.721 0.0604804 2.57033
lowerback 12.0845 1.93879 0.306862
upperback 2.90782 2.5938 -0.180101
thorax -3.70077 1.28055 -0.749348
lowerneck -13.1057 5.20436 -7.54266
upperneck 45.9892 9.16826 4.83464
head 19.2552 3.03559 5.48908
rclavicle 3.20043e-014 -6.36111e-015
rhumerus -37.9479 -10.3111 -79.2244
rradius 41.6198
rwrist 0.391832
rhand -15.0962 8.15061
rfingers 7.12502
rthumb 11.072 -21.5373
lclavicle 3.20043e-014 -6.36111e-015
lhumerus -36.7469 13.1491 78.8317
lradius 36.5732
lwrist -5.32235
lhand -18.0003 28.3762
lfingers 7.12502
lthumb 8.27001 58.1944
rfemur -15.6708 -3.1181 22.1769
rtibia 31.393
rfoot -13.591 -9.1537
rtoes 13.1743
lfemur -19.9406 -7.66304 -19.6221
ltibia 35.6454
lfoot -13.6695 -3.66976
ltoes -16.1905
1226
root -13.937 17.9622 11.9668 362.787 0.738449 2.67744
lowerback 12.0423 1.93622 0.167878
upperback 2.95143 2.57144 -0.239955
thorax -3.63569 1.27124 -0.727574
lowerneck -13.1577 5.26603 -7.53417
upperneck 46.0156 9.2629 4.90239
head 19.2695 3.08662 5.54316
rclavicle 1.40143e-014 -1.31198e-014
rhumerus -38.0369 -10.7564 -78.9673
rradius 41.2733
rwrist 0.514357
rhand -15.2515 8.42308
rfingers 7.12502
rthumb 10.9222 -21.2728
lclavicle 1.40143e-014 -1.31198e-014
lhumerus -36.6176 12.7535 79.0468
lradius 36.5063
lwrist -5.21698
lhand -17.4431 29.2786
lfingers 7.12502
lthumb 8.80776 59.0748
rfemur -15.8105 -3.32132 22.1163
rtibia 31.3407
rfoot -13.4581 -9.55768
rtoes 13.2158
lfemur -19.7534 -7.79589 -19.7957
ltibia 36.5363
lfoot -13.7516 -3.76737
ltoes -15.7359
1227
root -13.9496 17.9696 11.9223 362.843 1.40095 2.76736
lowerback 12.0431 1.9464 -0.00274574
upperback 3.00461 2.56389 -0.259719
thorax -3.58728 1.26926 -0.649995
lowerneck -13.254 5.31016 -7.63675
upperneck 45.9821 9.34279 5.02122
head 19.2443 3.1241 5.63488
rclavicle 4.07509e-015 -7.95139e-015
rhumerus -38.1126 -11.2018 -78.67
rradius 40.9409
rwrist 0.560564
rhand -15.2275 8.61295
rfingers 7.12502
rthumb 10.9454 -21.0818
lclavicle 4.07509e-015 -7.95139e-015
lhumerus -36.4647 12.6765 79.0951
lradius 36.3568
lwrist -5.91848
lhand -16.694 29.2913
lfingers 7.12502
lthumb 9.53061 59.0558
rfemur -15.9735 -3.55043 22.0749
rtibia 31.3031
rfoot -13.2263 -9.9429
rtoes 12.7656
lfemur -19.5045 -7.96878 -19.9281
ltibia 37.3372
lfoot -13.8216 -3.85728
ltoes -16.3372
1228
root -13.9614 17.9734 11.8796 362.877 2.06044 2.84313
lowerback 12.1248 1.93527 -0.172033
upperback 3.00713 2.52804 -0.27685
thorax -3.63626 1.25264 -0.570491
lowerneck -13.2841 5.37032 -7.8353
upperneck 45.8982 9.41799 5.24461
head 19.1472 3.16459 5.7805
rclavicle 6.95746e-015 2.82274e-014
rhumerus -38.3576 -11.5615 -78.3998
rradius 40.7347
rwrist 0.682823
rhand -15.2776 8.68916
rfingers 7.12502
rthumb 10.897 -21.0081
lclavicle 6.95746e-015 2.82274e-014
lhumerus -36.5652 12.5323 79.0805
lradius 36.4119
lwrist -6.50488
lhand -15.901 29.4755
lfingers 7.12502
lthumb 10.2957 59.2035
rfemur -16.0983 -3.69739 22.0315
rtibia 31.2828
rfoot -12.9952 -10.3338
rtoes 11.8184
lfemur -19.1824 -8.28317 -20.0184
ltibia 38.0414
lfoot -13.7975 -3.94663
ltoes -16.7456
1229
root -13.9691 17.9803 11.8374 362.938 2.7134 2.93575
lowerback 12.0931 1.91851 -0.28263
upperback 3.03536 2.49138 -0.322418
thorax -3.59228 1.23572 -0.548466
lowerneck -13.2351 5.4504 -7.90572
upperneck 45.7755 9.53763 5.31335
head 19.0239 3.2275 5.82697
rclavicle -3.05134e-014 2.54444e-014
rhumerus -38.5487 -11.6756 -78.2278
rradius 40.5205
rwrist 0.580656
rhand -15.5057 8.57432
rfingers 7.12502
rthumb 10.677 -21.1344
lclavicle -3.05134e-014 2.54444e-014
lhumerus -36.7014 12.1677 79.2439
lradius 36.6114
lwrist -6.12055
lhand -16.5511 29.3815
lfingers 7.12502
lthumb 9.66847 59.1396
rfemur -16.2289 -3.8658 21.9539
rtibia 31.2437
rfoot -12.7697 -10.696
rtoes 11.5045
lfemur -18.8354 -8.71382 -20.1102
ltibia 38.6656
lfoot -13.6463 -4.07864
ltoes -16.4871
1230
root -13.9759 17.9867 11.7945 363.036 3.33084 2.98217
lowerback 11.9681 1.92435 -0.34439
upperback 3.06614 2.49149 -0.367377
thorax -3.4923 1.23687 -0.555184
lowerneck -13.1543 5.52329 -7.8396
upperneck 45.6939 9.65291 5.26776
head 18.9433 3.2925 5.79808
rclavicle -1.17283e-014 5.1684e-015
rhumerus -38.6795 -11.6982 -78.1302
rradius 40.2682
rwrist 0.283982
rhand -15.7158 8.55749
rfingers 7.12502
rthumb 10.4743 -21.1616
lclavicle -1.17283e-014 5.1684e-015
lhumerus -36.7694 11.8363 79.3988
lradius 36.6973
lwrist -5.61663
lhand -18.0424 28.2489
lfingers 7.12502
lthumb 8.22937 58.0686
rfemur -16.4021 -4.03741 21.9339
rtibia 31.1758
rfoot -12.5691 -11.0229
rtoes 12.0552
lfemur -18.4925 -9.05623 -20.1352
ltibia 39.2169
lfoot -13.4655 -4.2793
ltoes -16.2387
1231
root -13.9838 17.991 11.7507 363.08 3.92863 2.96414
lowerback 11.9741 1.97875 -0.335466
upperback 3.1547 2.56479 -0.384416
thorax -3.40159 1.27376 -0.586762
lowerneck -13.4415 5.51766 -7.7705
upperneck 45.7419 9.70576 5.2204
head 19.0612 3.31173 5.8021
rclavicle -4.95968e-014 -2.78299e-015
rhumerus -38.754 -12.0045 -77.9482
rradius 40.0887
rwrist 0.0796055
rhand -15.6771 8.7799
rfingers 7.12502
rthumb 10.5116 -20.9373
lclavicle -4.95968e-014 -2.78299e-015
lhumerus -36.5464 11.4755 79.5918
lradius 36.613
lwrist -5.3326
lhand -18.6007 27.7183
lfingers 7.12502
lthumb 7.69061 57.5585
rfemur -16.5191 -4.16306 21.9806
rtibia 31.0846
rfoot -12.3512 -11.3441
rtoes 12.9138
lfemur -18.0664 -9.3492 -20.082
ltibia 39.6967
lfoot -13.3626 -4.39726
ltoes -16.5771
1232
root -13.9915 17.9983 11.7065 363.133 4.43609 3.01125
lowerback 11.8458 2.06677 -0.395257
upperback 3.41982 2.6753 -0.429566
thorax -3.05485 1.33049 -0.604429
lowerneck -14.0915 5.4725 -7.71247
upperneck 45.6795 9.73908 5.14585
head 19.2148 3.31354 5.80769
rclavicle -1.27222e-014 1.98785e-015
rhumerus -38.4731 -12.5722 -77.7928
rradius 39.7944
rwrist 0.0838915
rhand -15.6055 9.02759
rfingers 7.12502
rthumb 10.5807 -20.6861
lclavicle -1.27222e-014 1.98785e-015
lhumerus -35.9736 11.2268 79.8255
lradius 36.5475
lwrist -5.20624
lhand -18.3909 27.9972
lfingers 7.12502
lthumb 7.8931 57.8299
rfemur -16.6578 -4.24972 21.9447
rtibia 31.0175
rfoot -12.1055 -11.6233
rtoes 13.4889
lfemur -17.5843 -9.60694 -20.1054
ltibia 40.1024
lfoot -13.3025 -4.44607
ltoes -17.3009
